<?xml version="1.0" encoding="UTF-8" standalone="no"?>
<!-- Generator: Adobe Illustrator 27.3.0, SVG Export Plug-In . SVG Version: 6.00 Build 0)  -->

<svg
   version="1.1"
   id="icons"
   x="0px"
   y="0px"
   viewBox="0 0 800 800"
   style="enable-background:new 0 0 800 800;"
   xml:space="preserve"
   sodipodi:docname="firebase.svg"
   inkscape:version="1.2.1 (9c6d41e, 2022-07-14)"
   xmlns:inkscape="http://www.inkscape.org/namespaces/inkscape"
   xmlns:sodipodi="http://sodipodi.sourceforge.net/DTD/sodipodi-0.dtd"
   xmlns="http://www.w3.org/2000/svg"
   xmlns:svg="http://www.w3.org/2000/svg"><defs
   id="defs13" /><sodipodi:namedview
   id="namedview11"
   pagecolor="#505050"
   bordercolor="#ffffff"
   borderopacity="1"
   inkscape:showpageshadow="0"
   inkscape:pageopacity="0"
   inkscape:pagecheckerboard="1"
   inkscape:deskcolor="#505050"
   showgrid="false"
   inkscape:zoom="1.28375"
   inkscape:cx="399.61052"
   inkscape:cy="400"
   inkscape:window-width="1390"
   inkscape:window-height="1205"
   inkscape:window-x="0"
   inkscape:window-y="717"
   inkscape:window-maximized="0"
   inkscape:current-layer="icons" />
<style
   type="text/css"
   id="style2">
	.st0{fill:none;stroke:#000000;stroke-width:14;stroke-miterlimit:10;}
</style>


<g
   id="g176"
   transform="matrix(0.78566035,0,0,0.74658582,84.216769,101.37448)"><path
     class="st0"
     d="M 145.6,514.7 219.7,39.6 c 2.6,-16.2 24.3,-20 32,-5.5 l 79.7,149.1 z"
     id="path4" /><path
     class="st0"
     d="M 675,625 602,192.5 c -1.6,-9.4 -10.5,-15.6 -19.8,-14 -3.4,0.6 -6.6,2.2 -9.1,4.7 L 125,625 374,768.6 c 15.5,8.5 34.3,8.5 49.9,0 z"
     id="path6" /><path
     class="st0"
     d="M 472.4,248.3 415.3,139.6 c -4.2,-8.4 -14.5,-11.7 -22.8,-7.4 -3.2,1.6 -5.8,4.2 -7.4,7.4 L 134.1,587 Z"
     id="path8" /></g>
</svg>
